<svg viewBox="0 0 1440 1024" xmlns="http://www.w3.org/2000/svg" class="system-map">
  <path d="M537.5 871.5H698.5L748.5 821.5L647.5 720.5L961.5 406.5L918.5 362.5L1003.5 277.5L962.5 234.5L1076.5 120.5" class="line" data-line-id="line-1" />
  <path d="M362.5 491.5L684.5 813.5L941.5 556.5L557.5 172.5H399.5" class="line" data-line-id="line-2" />
  <path d="M876.5 491.5H1033.5L1073.5 451.5" class="line" data-line-id="line-4" />
  <path d="M533.5 662.5L708.5 487.5L623.5 402.5L819.5 206.5" class="line" data-line-id="line-5" />
  <circle cx="876.5" cy="491.5" class="station terminus transfer" data-station-id="berri-uqam"/>
  <circle cx="1033.5" cy="491.5" class="station" data-station-id="jean-drapeau"/>
  <circle cx="1073.5" cy="451.5" class="station terminus" data-station-id="longueuil-udes"/>
  <circle cx="537.5" cy="871.5" class="station terminus" data-station-id="angrignon"/>
  <circle cx="577.5" cy="871.5" class="station" data-station-id="monk"/>
  <circle cx="617.5" cy="871.5" class="station" data-station-id="jolicoeur"/>
  <circle cx="658.5" cy="871.5" class="station" data-station-id="verdun"/>
  <circle cx="698.5" cy="871.5" class="station" data-station-id="de-leglise"/>
  <circle cx="724.5" cy="845.5" class="station" data-station-id="lasalle"/>
  <circle cx="748.5" cy="821.5" class="station" data-station-id="charlevoix"/>
  <circle cx="712.5" cy="785.5" class="station transfer" data-station-id="lionel-groulx"/>
  <circle cx="798.5" cy="699.5" class="station" data-station-id="lucien-lallier"/>
  <circle cx="840.5" cy="657.5" class="station" data-station-id="bonaventure"/>
  <circle cx="676.5" cy="691.5" class="station" data-station-id="atwater"/>
  <circle cx="704.5" cy="663.5" class="station" data-station-id="guy-concordia"/>
  <circle cx="733.5" cy="634.5" class="station" data-station-id="peel"/>
  <circle cx="761.5" cy="606.5" class="station" data-station-id="mcgill"/>
  <circle cx="804.5" cy="563.5" class="station" data-station-id="place-des-arts"/>
  <circle cx="832.5" cy="535.5" class="station" data-station-id="st-laurent"/>
  <circle cx="905.5" cy="462.5" class="station" data-station-id="beaudry"/>
  <circle cx="933.5" cy="434.5" class="station" data-station-id="papineau"/>
  <circle cx="961.5" cy="406.5" class="station" data-station-id="frontenac"/>
  <circle cx="918.5" cy="362.5" class="station" data-station-id="prefontaine"/>
  <circle cx="947.5" cy="333.5" class="station" data-station-id="joliette"/>
  <circle cx="975.5" cy="305.5" class="station" data-station-id="pie-ix"/>
  <circle cx="1003.5" cy="277.5" class="station" data-station-id="viau"/>
  <circle cx="962.5" cy="234.5" class="station" data-station-id="assomption"/>
  <circle cx="990.5" cy="206.5" class="station" data-station-id="cadillac"/>
  <circle cx="1019.5" cy="177.5" class="station" data-station-id="langelier"/>
  <circle cx="1047.5" cy="149.5" class="station" data-station-id="radisson"/>
  <circle cx="1076.5" cy="120.5" class="station terminus" data-station-id="honore-beaugrand"/>
  <circle cx="362.5" cy="491.5" class="station terminus" data-station-id="cote-vertu"/>
  <circle cx="391.5" cy="520.5" class="station" data-station-id="du-college"/>
  <circle cx="419.5" cy="548.5" class="station" data-station-id="de-la-savane"/>
  <circle cx="448.5" cy="577.5" class="station" data-station-id="namur"/>
  <circle cx="476.5" cy="605.5" class="station" data-station-id="plamondon"/>
  <circle cx="505.5" cy="634.5" class="station" data-station-id="cote-ste-catherine"/>
  <circle cx="533.5" cy="662.5" class="station terminus transfer" data-station-id="snowdon"/>
  <circle cx="575.5" cy="704.5" class="station" data-station-id="villa-maria"/>
  <circle cx="619.5" cy="748.5" class="station" data-station-id="vendome"/>
  <circle cx="661.5" cy="790.5" class="station" data-station-id="place-st-henri"/>
  <circle cx="755.5" cy="742.5" class="station" data-station-id="georges-vanier"/>
  <circle cx="869.5" cy="628.5" class="station" data-station-id="square-victoria-oaci"/>
  <circle cx="897.5" cy="600.5" class="station" data-station-id="place-darmes"/>
  <circle cx="926.5" cy="571.5" class="station" data-station-id="champ-de-mars"/>
  <circle cx="847.5" cy="462.5" class="station" data-station-id="sherbrooke"/>
  <circle cx="819.5" cy="434.5" class="station" data-station-id="mont-royal"/>
  <circle cx="790.5" cy="405.5" class="station" data-station-id="laurier"/>
  <circle cx="762.5" cy="377.5" class="station" data-station-id="rosemont"/>
  <circle cx="733.5" cy="348.5" class="station" data-station-id="beaubien"/>
  <circle cx="705.5" cy="320.5" class="station transfer" data-station-id="jean-talon"/>
  <circle cx="676.5" cy="291.5" class="station" data-station-id="jarry"/>
  <circle cx="648.5" cy="263.5" class="station" data-station-id="cremazie"/>
  <circle cx="591.5" cy="206.5" class="station" data-station-id="henri-bourassa"/>
  <circle cx="620.5" cy="235.5" class="station" data-station-id="sauve"/>
  <circle cx="562.5" cy="177.5" class="station" data-station-id="cartier"/>
  <circle cx="480.5" cy="172.5" class="station" data-station-id="de-la-concorde"/>
  <circle cx="399.5" cy="172.5" class="station terminus" data-station-id="montmorency"/>
  <circle cx="590.5" cy="605.5" class="station" data-station-id="cote-des-neiges"/>
  <circle cx="632.5" cy="563.5" class="station" data-station-id="udem"/>
  <circle cx="675.5" cy="520.5" class="station" data-station-id="edouard-montpetit"/>
  <circle cx="680.5" cy="459.5" class="station" data-station-id="outremont"/>
  <circle cx="651.5" cy="430.5" class="station" data-station-id="acadie"/>
  <circle cx="669.5" cy="356.5" class="station" data-station-id="de-castelnau"/>
  <circle cx="642.5" cy="383.5" class="station" data-station-id="parc"/>
  <circle cx="748.5" cy="277.5" class="station" data-station-id="fabre"/>
  <circle cx="784.5" cy="241.5" class="station" data-station-id="diberville"/>
  <circle cx="819.5" cy="206.5" class="station terminus" data-station-id="st-michel"/>
</svg>