<svg viewBox="0 0 1440 1048" xmlns="http://www.w3.org/2000/svg" class="system-map">
  <path d="M760.5 328.5H972.5" class="line" data-line-id="line-4" />
  <path d="M364.5 481.5H1228.5" class="line" data-line-id="line-5" />
  <path d="M477.5 254.5H128.5V281.5" class="line" data-line-id="line-6" />
  <path d="M760.5 254.5C760.5 510.613 760.5 659.625 760.5 905.422C760.5 926.409 743.487 943.5 722.5 943.5H718.5C697.513 943.5 680.5 926.487 680.5 905.5V621.5H641.5V571.5L551.5 481.5V328.5L366.5 143.5V106.5" class="line" data-line-id="line-1" />
  <path d="M204.5 632.5H1077.5L1228.5 481.5" class="line" data-line-id="line-2" />
  <circle cx="204.5" cy="632.5" class="station terminus" data-station-id="kipling"/>
  <circle cx="234.5" cy="632.5" class="station" data-station-id="islington"/>
  <circle cx="264.5" cy="632.5" class="station" data-station-id="royal-york"/>
  <circle cx="294.5" cy="632.5" class="station" data-station-id="old-mill"/>
  <circle cx="324.5" cy="632.5" class="station" data-station-id="jane"/>
  <circle cx="354.5" cy="632.5" class="station" data-station-id="runnymede"/>
  <circle cx="384.5" cy="632.5" class="station" data-station-id="high-park"/>
  <circle cx="414.5" cy="632.5" class="station" data-station-id="keele"/>
  <circle cx="444.5" cy="632.5" class="station" data-station-id="dundas-west"/>
  <circle cx="474.5" cy="632.5" class="station" data-station-id="lansdowne"/>
  <circle cx="504.5" cy="632.5" class="station" data-station-id="dufferin"/>
  <circle cx="534.5" cy="632.5" class="station" data-station-id="ossington"/>
  <circle cx="563.5" cy="632.5" class="station" data-station-id="christie"/>
  <circle cx="594.5" cy="632.5" class="station" data-station-id="bathurst"/>
  <rect x="635" y="615" width="13" height="24" rx="6.5" class="station transfer" data-station-id="spadina"/>
  <circle cx="680.5" cy="632.5" class="station transfer" data-station-id="st-george"/>
  <circle cx="721.5" cy="632.5" class="station" data-station-id="bay"/>
  <circle cx="760.5" cy="632.5" class="station transfer" data-station-id="bloor-yonge"/>
  <circle cx="808.5" cy="632.5" class="station" data-station-id="sherbourne"/>
  <circle cx="837.5" cy="632.5" class="station" data-station-id="castle-frank"/>
  <circle cx="867.5" cy="632.5" class="station" data-station-id="broadview"/>
  <circle cx="897.5" cy="632.5" class="station" data-station-id="chester"/>
  <circle cx="927.5" cy="632.5" class="station" data-station-id="pape"/>
  <circle cx="957.5" cy="632.5" class="station" data-station-id="donlands"/>
  <circle cx="987.5" cy="632.5" class="station" data-station-id="greenwood"/>
  <circle cx="1017.5" cy="632.5" class="station" data-station-id="coxwell"/>
  <circle cx="1047.5" cy="632.5" class="station" data-station-id="woodbine"/>
  <circle cx="1077.5" cy="632.5" class="station" data-station-id="main-street"/>
  <circle cx="1127.5" cy="582.5" class="station" data-station-id="victoria-park"/>
  <circle cx="1177.5" cy="532.5" class="station" data-station-id="warden"/>
  <circle cx="1228.5" cy="481.5" class="station terminus transfer" data-station-id="kennedy"/>
  <circle cx="760.5" cy="254.5" class="station terminus" data-station-id="finch"/>
  <circle cx="760.5" cy="291.5" class="station" data-station-id="north-york-centre"/>
  <circle cx="760.5" cy="328.5" class="station terminus transfer" data-station-id="sheppard-yonge"/>
  <circle cx="760.5" cy="365.5" class="station" data-station-id="york-mills"/>
  <circle cx="760.5" cy="423.5" class="station" data-station-id="lawrence"/>
  <circle cx="760.5" cy="481.5" class="station transfer" data-station-id="eglinton"/>
  <circle cx="760.5" cy="510.5" class="station" data-station-id="davisville"/>
  <circle cx="760.5" cy="540.5" class="station" data-station-id="st-clair"/>
  <circle cx="760.5" cy="568.5" class="station" data-station-id="summerhill"/>
  <circle cx="760.5" cy="598.5" class="station" data-station-id="rosedale"/>
  <circle cx="760.5" cy="684.5" class="station" data-station-id="wellesley"/>
  <circle cx="760.5" cy="736.5" class="station" data-station-id="college"/>
  <circle cx="760.5" cy="788.5" class="station" data-station-id="tmu"/>
  <circle cx="760.5" cy="840.5" class="station" data-station-id="queen"/>
  <circle cx="760.5" cy="892.5" class="station" data-station-id="king"/>
  <circle cx="720.5" cy="943.5" class="station" data-station-id="union"/>
  <circle cx="680.5" cy="891.5" class="station" data-station-id="st-andrew"/>
  <circle cx="680.5" cy="840.5" class="station" data-station-id="osgoode"/>
  <circle cx="680.5" cy="788.5" class="station" data-station-id="st-patrick"/>
  <circle cx="680.5" cy="736.5" class="station" data-station-id="queens-park"/>
  <circle cx="680.5" cy="684.5" class="station" data-station-id="museum"/>
  <circle cx="641.5" cy="583.5" class="station" data-station-id="dupont"/>
  <circle cx="609.5" cy="539.5" class="station" data-station-id="st-clair-west"/>
  <circle cx="551.5" cy="481.5" class="station transfer" data-station-id="cedarvale"/>
  <circle cx="551.5" cy="452.5" class="station" data-station-id="glencairn"/>
  <circle cx="551.5" cy="423.5" class="station" data-station-id="lawrence-west"/>
  <circle cx="551.5" cy="394.5" class="station" data-station-id="yorkdale"/>
  <circle cx="551.5" cy="365.5" class="station" data-station-id="wilson"/>
  <circle cx="551.5" cy="328.5" class="station" data-station-id="sheppard-west"/>
  <circle cx="514.5" cy="291.5" class="station" data-station-id="downsview-park"/>
  <circle cx="477.5" cy="254.5" class="station terminus transfer" data-station-id="finch-west"/>
  <circle cx="440.5" cy="217.5" class="station" data-station-id="york-u"/>
  <circle cx="403.5" cy="180.5" class="station" data-station-id="pioneer-village"/>
  <circle cx="366.5" cy="143.5" class="station" data-station-id="highway-407"/>
  <circle cx="366.5" cy="106.5" class="station terminus" data-station-id="vaughan"/>
  <circle cx="813.5" cy="328.5" class="station" data-station-id="bayview"/>
  <circle cx="866.5" cy="328.5" class="station" data-station-id="bessarion"/>
  <circle cx="919.5" cy="328.5" class="station" data-station-id="leslie"/>
  <circle cx="972.5" cy="328.5" class="station terminus" data-station-id="don-mills"/>
  <circle cx="364.5" cy="481.5" class="station terminus" data-station-id="mt-dennis"/>
  <circle cx="399.5" cy="481.5" class="station" data-station-id="keelesdale"/>
  <circle cx="434.5" cy="481.5" class="station" data-station-id="caledonia"/>
  <circle cx="469.5" cy="481.5" class="station" data-station-id="fairbank"/>
  <circle cx="504.5" cy="481.5" class="station" data-station-id="oakwood"/>
  <circle cx="607.5" cy="481.5" class="station" data-station-id="forest-hill"/>
  <circle cx="656.5" cy="481.5" class="station" data-station-id="chaplin"/>
  <circle cx="705.5" cy="481.5" class="station" data-station-id="avenue"/>
  <circle cx="808.5" cy="481.5" class="station" data-station-id="mt-pleasant"/>
  <circle cx="838.5" cy="481.5" class="station" data-station-id="leaside"/>
  <circle cx="868.5" cy="481.5" class="station" data-station-id="laird"/>
  <circle cx="898.5" cy="481.5" class="station" data-station-id="sunnybrook-park"/>
  <circle cx="928.5" cy="481.5" class="station" data-station-id="don-valley"/>
  <circle cx="958.5" cy="481.5" class="station" data-station-id="aga-khan-park-museum"/>
  <circle cx="988.5" cy="481.5" class="station" data-station-id="wynford"/>
  <circle cx="1018.5" cy="481.5" class="station" data-station-id="sloane"/>
  <circle cx="1048.5" cy="481.5" class="station" data-station-id="o-connor"/>
  <circle cx="1078.5" cy="481.5" class="station" data-station-id="pharmacy"/>
  <circle cx="1108.5" cy="481.5" class="station" data-station-id="hakimi-lebovic"/>
  <circle cx="1138.5" cy="481.5" class="station" data-station-id="golden-mile"/>
  <circle cx="1168.5" cy="481.5" class="station" data-station-id="birchmount"/>
  <circle cx="1198.5" cy="481.5" class="station" data-station-id="ionview"/>
  <circle cx="451.5" cy="254.5" class="station" data-station-id="sentinel"/>
  <circle cx="431.5" cy="254.5" class="station" data-station-id="tobermory"/>
  <circle cx="410.5" cy="254.5" class="station" data-station-id="driftwood"/>
  <circle cx="390.5" cy="254.5" class="station" data-station-id="jane-and-finch"/>
  <circle cx="370.5" cy="254.5" class="station" data-station-id="norfinch-oakdale"/>
  <circle cx="350.5" cy="254.5" class="station" data-station-id="signet-arrow"/>
  <circle cx="330.5" cy="254.5" class="station" data-station-id="emery"/>
  <circle cx="310.5" cy="254.5" class="station" data-station-id="milvan-rumike"/>
  <circle cx="289.5" cy="254.5" class="station" data-station-id="duncanwoods"/>
  <circle cx="269.5" cy="254.5" class="station" data-station-id="pearldale"/>
  <circle cx="249.5" cy="254.5" class="station" data-station-id="rowntree-mills"/>
  <circle cx="229.5" cy="254.5" class="station" data-station-id="mt-olive"/>
  <circle cx="208.5" cy="254.5" class="station" data-station-id="stevenson"/>
  <circle cx="188.5" cy="254.5" class="station" data-station-id="albion"/>
  <circle cx="168.5" cy="254.5" class="station" data-station-id="martin-grove"/>
  <circle cx="148.5" cy="254.5" class="station" data-station-id="westmore"/>
  <circle cx="128.5" cy="281.5" class="station terminus" data-station-id="humber-college"/>
</svg>
